<?xml version="1.0" encoding="UTF-8"?>
<svg version="1.1" xmlns="http://www.w3.org/2000/svg" width="1048" height="1048">
<path d="M0 0 C345.84 0 691.68 0 1048 0 C1048 345.84 1048 691.68 1048 1048 C702.16 1048 356.32 1048 0 1048 C0 702.16 0 356.32 0 0 Z " fill="#FFC350" transform="translate(0,0)"/>
<path d="M0 0 C1.0533252 0.11746582 2.10665039 0.23493164 3.19189453 0.35595703 C23.6947911 2.67303055 43.83878263 6.50222714 63.63818359 12.32324219 C66.29852519 13.08553978 68.96925383 13.79974345 71.64453125 14.5078125 C72.61688721 14.7663501 73.58924316 15.0248877 74.59106445 15.29125977 C76.46481723 15.78804407 78.33958587 16.28102028 80.21557617 16.76928711 C85.45593384 18.17174605 90.42534915 19.87847583 95.43652344 21.95336914 C98.11216113 23.04579379 100.8084661 24.05255586 103.5234375 25.04296875 C115.82695145 29.54425434 127.85273714 34.3881478 139.71972656 39.93994141 C141.87517121 40.94196931 144.04032549 41.9180793 146.2109375 42.88671875 C177.58868627 57.03746819 207.12287611 76.58630238 234 98 C234.89332031 98.7115625 235.78664063 99.423125 236.70703125 100.15625 C249.72230414 110.67518211 262.08585595 121.7496102 273.88183594 133.62109375 C275.88773626 135.6378049 277.90423998 137.64347361 279.921875 139.6484375 C286.35956783 146.07986678 292.54096697 152.5305559 298.16625977 159.69482422 C300.04365413 162.05487715 302.0227088 164.27968481 304.0625 166.5 C307.61441377 170.45744723 310.74057816 174.61721889 313.8203125 178.94921875 C315.3557032 181.09821542 316.90589013 183.22161347 318.4921875 185.33203125 C361.58352766 242.80566148 390.45468263 311.07323739 400.58056641 382.22314453 C400.85046947 384.01003478 401.14753673 385.79314181 401.47802734 387.56982422 C404.90624834 406.04357096 405.43657575 424.94579101 405.4375 443.6875 C405.43956451 444.74796539 405.44162903 445.80843079 405.4437561 446.90103149 C405.43828606 462.7805761 404.55368035 478.41865967 402.6875 494.1875 C402.52760086 495.540215 402.52760086 495.540215 402.36447144 496.92025757 C398.91486169 525.38256448 391.37115307 552.97619761 382.875 580.3125 C382.6579541 581.02124268 382.4409082 581.72998535 382.21728516 582.46020508 C380.20638655 588.80483469 377.62645848 594.88900185 375 601 C374.52916992 602.09578369 374.05833984 603.19156738 373.57324219 604.32055664 C359.52872289 636.7158723 342.57435961 666.9631242 321 695 C320.49452637 695.66241699 319.98905273 696.32483398 319.46826172 697.00732422 C314.319363 703.74444045 309.02331709 710.28971575 303.265625 716.5234375 C302.02276621 717.88201073 300.7875909 719.24836261 299.59082031 720.64770508 C294.59773306 726.48174125 289.24906303 731.93708448 283.82226562 737.36303711 C282.26139673 738.92608734 280.70872112 740.49697365 279.15625 742.06835938 C272.76099113 748.49900853 266.10239836 754.34545951 259 760 C257.89814943 760.93475311 256.80180692 761.8761013 255.71484375 762.828125 C241.82430471 774.94083134 226.59587408 785.22503952 211 795 C210.41814941 795.37012207 209.83629883 795.74024414 209.23681641 796.12158203 C197.30476906 803.69271315 184.67443634 810.00765308 172.09570312 816.41845703 C168.87055487 818.06613135 165.65694485 819.73456922 162.45019531 821.41772461 C156.93603722 824.20944033 151.42773561 826.70716644 145.625 828.83984375 C144.93827713 829.09454941 144.25155426 829.34925507 143.54402161 829.61167908 C135.62802129 832.53165886 127.66774668 835.32362744 119.6875 838.0625 C118.92208893 838.32523712 118.15667786 838.58797424 117.36807251 838.8586731 C106.75927569 842.48814738 96.1778072 845.95875889 85.24169922 848.47900391 C82.74952991 849.05821207 80.26811381 849.67550891 77.78515625 850.29296875 C66.59887026 853.01885439 55.48535305 854.9267141 44.05078125 856.2421875 C40.03311362 856.71302313 36.08104357 857.32493302 32.10546875 858.0703125 C-8.76183547 865.37223332 -52.17549318 862.09969035 -93 856 C-93.67603271 855.90096375 -94.35206543 855.80192749 -95.04858398 855.69989014 C-120.50903224 851.95146535 -146.60860522 845.64198256 -170.80371094 836.80078125 C-173.38620845 835.85918589 -175.9781279 834.94582949 -178.5703125 834.03125 C-180.52649784 833.33461295 -182.48223275 832.63670972 -184.4375 831.9375 C-185.32606689 831.62095459 -186.21463379 831.30440918 -187.13012695 830.97827148 C-192.62983504 828.97907755 -197.94303 826.71680271 -203.25170898 824.2565918 C-205.92591546 823.03387342 -208.61881739 821.8792727 -211.33203125 820.74609375 C-225.0607523 814.98495623 -238.08133672 808.39136191 -251 801 C-251.78133301 800.55624023 -252.56266602 800.11248047 -253.36767578 799.65527344 C-263.54115937 793.86005649 -273.34416537 787.61747247 -283 781 C-284.13408293 780.2291201 -285.26819687 779.45828582 -286.40234375 778.6875 C-302.51381313 767.65277186 -318.0719914 755.72903432 -332.375 742.4140625 C-334.4689565 740.48837036 -336.59083962 738.62477102 -338.74609375 736.76953125 C-343.38136963 732.7268487 -347.72591378 728.42115536 -352.0625 724.0625 C-353.2081543 722.92264648 -353.2081543 722.92264648 -354.37695312 721.75976562 C-358.56821904 717.56132903 -362.59071724 713.27618635 -366.46069336 708.7800293 C-368.49873287 706.42327338 -370.62527407 704.1535854 -372.75 701.875 C-378.04443411 696.06716622 -382.87828043 689.95790521 -387.66503906 683.72900391 C-388.91843144 682.1056453 -390.18911312 680.49567753 -391.4609375 678.88671875 C-403.12067209 664.03848069 -413.41978909 648.25491697 -423 632 C-423.37012207 631.37689941 -423.74024414 630.75379883 -424.12158203 630.11181641 C-437.34059521 607.73421719 -448.05396912 584.36859648 -457 560 C-457.42716309 558.845 -457.85432617 557.69 -458.29443359 556.5 C-461.03044441 548.99221305 -463.41021206 541.46100207 -465.5 533.75 C-466.09751638 531.57287827 -466.69517356 529.39579519 -467.29296875 527.21875 C-467.72488525 525.63707031 -467.72488525 525.63707031 -468.16552734 524.0234375 C-468.91980038 521.29057698 -469.6966253 518.56597302 -470.48828125 515.84375 C-479.75403182 483.86710989 -479.75403182 483.86710989 -474.1875 472.25 C-470.14555954 465.96640865 -463.03312201 459.69468276 -456 457 C-446.45336467 455.48699889 -438.83743577 457.65966075 -430.10131836 461.24584961 C-419.12648323 465.75098454 -408.99037609 467.51681402 -397.125 467.375 C-395.88991699 467.36412354 -394.65483398 467.35324707 -393.38232422 467.34204102 C-378.81189333 467.08690925 -367.72016094 464.19774961 -355 457 C-354.10796875 456.525625 -353.2159375 456.05125 -352.296875 455.5625 C-346.04056011 451.9164357 -343.53930476 447.67501067 -341 441 C-340.4121875 439.63294922 -340.4121875 439.63294922 -339.8125 438.23828125 C-333.12724644 420.48057648 -336.6316512 398.62270699 -342.1953125 381.05859375 C-342.94557001 378.2068868 -343.16354536 375.92746189 -343 373 C-340.3274748 371.96970407 -339.21805415 371.91975337 -336.484375 372.92578125 C-335.58203125 373.38339844 -334.6796875 373.84101563 -333.75 374.3125 C-314.53832236 383.47421153 -289.84544901 381.48832097 -270.0859375 374.60546875 C-258.1193433 370.09409171 -247.38321118 363.7034825 -238 355 C-237.15050781 354.23042969 -236.30101562 353.46085937 -235.42578125 352.66796875 C-219.81118183 337.86638064 -207.05954874 315.28378716 -205.85473633 293.35620117 C-205.83006914 290.2998569 -205.8143468 287.24395115 -205.8125 284.1875 C-205.80025391 283.13240234 -205.78800781 282.07730469 -205.77539062 280.99023438 C-205.76407224 274.9348968 -206.22986189 269.792042 -208 264 C-208.30679687 262.95714844 -208.61359375 261.91429687 -208.9296875 260.83984375 C-211.08458109 254.20965406 -211.08458109 254.20965406 -214.3125 248.0625 C-216 245 -216 245 -215.75 242.0625 C-215.5025 241.381875 -215.255 240.70125 -215 240 C-211.51968943 238.79682999 -209.41623745 239.23147849 -205.9375 240.3125 C-178.63537269 248.25295934 -148.66116863 247.12247337 -123.0625 234.25 C-113.4942841 228.59739245 -105.72429803 221.10179482 -101 211 C-100.58878906 210.13246094 -100.17757813 209.26492188 -99.75390625 208.37109375 C-95.36868218 197.46114182 -95.0461169 184.12750245 -99.0625 173.0625 C-99.99269215 171.01866114 -100.97169433 168.99627708 -102 167 C-102.4846875 166.00871094 -102.969375 165.01742187 -103.46875 163.99609375 C-109.5650371 152.53567167 -118.49725762 143.47310516 -129 136 C-129 135.34 -129 134.68 -129 134 C-127.69675781 133.89042969 -126.39351563 133.78085938 -125.05078125 133.66796875 C-120.1877241 133.12319226 -115.80013486 131.90910364 -111.1875 130.3125 C-110.40487793 130.0441333 -109.62225586 129.7757666 -108.81591797 129.49926758 C-84.48954592 120.9427676 -66.02356643 104.20728272 -54.78637695 81.07519531 C-53.83903749 79.05802166 -52.91455044 77.03221916 -52 75 C-51.53980469 73.99710937 -51.07960938 72.99421875 -50.60546875 71.9609375 C-47.75983004 64.49993423 -47.62704191 57.23213844 -47.5625 49.3125 C-47.5521875 48.25490479 -47.541875 47.19730957 -47.53125 46.10766602 C-47.67739041 33.14074883 -51.63386357 22.17225669 -60.875 12.875 C-61.90664119 11.90588252 -62.94450203 10.94307807 -64 10 C-62.66732655 5.8443516 -61.10089737 3.85980998 -57.625 1.25 C-56.46871094 0.36054687 -56.46871094 0.36054687 -55.2890625 -0.546875 C-41.92449856 -9.03086439 -14.53425175 -1.66548518 0 0 Z " fill="#FFC350" transform="translate(530,60)"/>
<path d="M0 0 C1.0533252 0.11746582 2.10665039 0.23493164 3.19189453 0.35595703 C23.6947911 2.67303055 43.83878263 6.50222714 63.63818359 12.32324219 C66.29852519 13.08553978 68.96925383 13.79974345 71.64453125 14.5078125 C72.61688721 14.7663501 73.58924316 15.0248877 74.59106445 15.29125977 C76.46481723 15.78804407 78.33958587 16.28102028 80.21557617 16.76928711 C85.45593384 18.17174605 90.42534915 19.87847583 95.43652344 21.95336914 C98.11216113 23.04579379 100.8084661 24.05255586 103.5234375 25.04296875 C115.82695145 29.54425434 127.85273714 34.3881478 139.71972656 39.93994141 C141.87517121 40.94196931 144.04032549 41.9180793 146.2109375 42.88671875 C177.58868627 57.03746819 207.12287611 76.58630238 234 98 C234.89332031 98.7115625 235.78664063 99.423125 236.70703125 100.15625 C249.72230414 110.67518211 262.08585595 121.7496102 273.88183594 133.62109375 C275.88773626 135.6378049 277.90423998 137.64347361 279.921875 139.6484375 C286.35956783 146.07986678 292.54096697 152.5305559 298.16625977 159.69482422 C300.04365413 162.05487715 302.0227088 164.27968481 304.0625 166.5 C307.61441377 170.45744723 310.74057816 174.61721889 313.8203125 178.94921875 C315.3557032 181.09821542 316.90589013 183.22161347 318.4921875 185.33203125 C361.58352766 242.80566148 390.45468263 311.07323739 400.58056641 382.22314453 C400.85046947 384.01003478 401.14753673 385.79314181 401.47802734 387.56982422 C404.90624834 406.04357096 405.43657575 424.94579101 405.4375 443.6875 C405.43956451 444.74796539 405.44162903 445.80843079 405.4437561 446.90103149 C405.43828606 462.7805761 404.55368035 478.41865967 402.6875 494.1875 C402.52760086 495.540215 402.52760086 495.540215 402.36447144 496.92025757 C398.91486169 525.38256448 391.37115307 552.97619761 382.875 580.3125 C382.6579541 581.02124268 382.4409082 581.72998535 382.21728516 582.46020508 C380.20638655 588.80483469 377.62645848 594.88900185 375 601 C374.52916992 602.09578369 374.05833984 603.19156738 373.57324219 604.32055664 C359.52872289 636.7158723 342.57435961 666.9631242 321 695 C320.49452637 695.66241699 319.98905273 696.32483398 319.46826172 697.00732422 C314.319363 703.74444045 309.02331709 710.28971575 303.265625 716.5234375 C302.02276621 717.88201073 300.7875909 719.24836261 299.59082031 720.64770508 C294.59773306 726.48174125 289.24906303 731.93708448 283.82226562 737.36303711 C282.26139673 738.92608734 280.70872112 740.49697365 279.15625 742.06835938 C272.76099113 748.49900853 266.10239836 754.34545951 259 760 C257.89814943 760.93475311 256.80180692 761.8761013 255.71484375 762.828125 C241.82430471 774.94083134 226.59587408 785.22503952 211 795 C210.41814941 795.37012207 209.83629883 795.74024414 209.23681641 796.12158203 C197.30476906 803.69271315 184.67443634 810.00765308 172.09570312 816.41845703 C168.87055487 818.06613135 165.65694485 819.73456922 162.45019531 821.41772461 C156.93603722 824.20944033 151.42773561 826.70716644 145.625 828.83984375 C144.93827713 829.09454941 144.25155426 829.34925507 143.54402161 829.61167908 C135.62802129 832.53165886 127.66774668 835.32362744 119.6875 838.0625 C118.92208893 838.32523712 118.15667786 838.58797424 117.36807251 838.8586731 C106.75927569 842.48814738 96.1778072 845.95875889 85.24169922 848.47900391 C82.74952991 849.05821207 80.26811381 849.67550891 77.78515625 850.29296875 C66.59887026 853.01885439 55.48535305 854.9267141 44.05078125 856.2421875 C40.03311362 856.71302313 36.08104357 857.32493302 32.10546875 858.0703125 C-8.76183547 865.37223332 -52.17549318 862.09969035 -93 856 C-93.67603271 855.90096375 -94.35206543 855.80192749 -95.04858398 855.69989014 C-120.50903224 851.95146535 -146.60860522 845.64198256 -170.80371094 836.80078125 C-173.38620845 835.85918589 -175.9781279 834.94582949 -178.5703125 834.03125 C-180.52649784 833.33461295 -182.48223275 832.63670972 -184.4375 831.9375 C-185.32606689 831.62095459 -186.21463379 831.30440918 -187.13012695 830.97827148 C-192.62983504 828.97907755 -197.94303 826.71680271 -203.25170898 824.2565918 C-205.92591546 823.03387342 -208.61881739 821.8792727 -211.33203125 820.74609375 C-225.0607523 814.98495623 -238.08133672 808.39136191 -251 801 C-251.78133301 800.55624023 -252.56266602 800.11248047 -253.36767578 799.65527344 C-263.54115937 793.86005649 -273.34416537 787.61747247 -283 781 C-284.13408293 780.2291201 -285.26819687 779.45828582 -286.40234375 778.6875 C-302.51381313 767.65277186 -318.0719914 755.72903432 -332.375 742.4140625 C-334.4689565 740.48837036 -336.59083962 738.62477102 -338.74609375 736.76953125 C-343.38136963 732.7268487 -347.72591378 728.42115536 -352.0625 724.0625 C-353.2081543 722.92264648 -353.2081543 722.92264648 -354.37695312 721.75976562 C-358.56821904 717.56132903 -362.59071724 713.27618635 -366.46069336 708.7800293 C-368.49873287 706.42327338 -370.62527407 704.1535854 -372.75 701.875 C-378.04443411 696.06716622 -382.87828043 689.95790521 -387.66503906 683.72900391 C-388.91843144 682.1056453 -390.18911312 680.49567753 -391.4609375 678.88671875 C-403.12067209 664.03848069 -413.41978909 648.25491697 -423 632 C-423.37012207 631.37689941 -423.74024414 630.75379883 -424.12158203 630.11181641 C-437.34059521 607.73421719 -448.05396912 584.36859648 -457 560 C-457.42716309 558.845 -457.85432617 557.69 -458.29443359 556.5 C-461.03044441 548.99221305 -463.41021206 541.46100207 -465.5 533.75 C-466.09751638 531.57287827 -466.69517356 529.39579519 -467.29296875 527.21875 C-467.72488525 525.63707031 -467.72488525 525.63707031 -468.16552734 524.0234375 C-468.91980038 521.29057698 -469.6966253 518.56597302 -470.48828125 515.84375 C-479.75403182 483.86710989 -479.75403182 483.86710989 -474.1875 472.25 C-470.14555954 465.96640865 -463.03312201 459.69468276 -456 457 C-446.45336467 455.48699889 -438.83743577 457.65966075 -430.10131836 461.24584961 C-419.12648323 465.75098454 -408.99037609 467.51681402 -397.125 467.375 C-395.88991699 467.36412354 -394.65483398 467.35324707 -393.38232422 467.34204102 C-378.81189333 467.08690925 -367.72016094 464.19774961 -355 457 C-354.10796875 456.525625 -353.2159375 456.05125 -352.296875 455.5625 C-346.04056011 451.9164357 -343.53930476 447.67501067 -341 441 C-340.4121875 439.63294922 -340.4121875 439.63294922 -339.8125 438.23828125 C-333.12724644 420.48057648 -336.6316512 398.62270699 -342.1953125 381.05859375 C-342.94557001 378.2068868 -343.16354536 375.92746189 -343 373 C-340.3274748 371.96970407 -339.21805415 371.91975337 -336.484375 372.92578125 C-335.58203125 373.38339844 -334.6796875 373.84101563 -333.75 374.3125 C-314.53832236 383.47421153 -289.84544901 381.48832097 -270.0859375 374.60546875 C-258.1193433 370.09409171 -247.38321118 363.7034825 -238 355 C-237.15050781 354.23042969 -236.30101562 353.46085937 -235.42578125 352.66796875 C-219.81118183 337.86638064 -207.05954874 315.28378716 -205.85473633 293.35620117 C-205.83006914 290.2998569 -205.8143468 287.24395115 -205.8125 284.1875 C-205.80025391 283.13240234 -205.78800781 282.07730469 -205.77539062 280.99023438 C-205.76407224 274.9348968 -206.22986189 269.792042 -208 264 C-208.30679687 262.95714844 -208.61359375 261.91429687 -208.9296875 260.83984375 C-211.08458109 254.20965406 -211.08458109 254.20965406 -214.3125 248.0625 C-216 245 -216 245 -215.75 242.0625 C-215.5025 241.381875 -215.255 240.70125 -215 240 C-211.51968943 238.79682999 -209.41623745 239.23147849 -205.9375 240.3125 C-178.63537269 248.25295934 -148.66116863 247.12247337 -123.0625 234.25 C-113.4942841 228.59739245 -105.72429803 221.10179482 -101 211 C-100.58878906 210.13246094 -100.17757813 209.26492188 -99.75390625 208.37109375 C-95.36868218 197.46114182 -95.0461169 184.12750245 -99.0625 173.0625 C-99.99269215 171.01866114 -100.97169433 168.99627708 -102 167 C-102.4846875 166.00871094 -102.969375 165.01742187 -103.46875 163.99609375 C-109.5650371 152.53567167 -118.49725762 143.47310516 -129 136 C-129 135.34 -129 134.68 -129 134 C-127.69675781 133.89042969 -126.39351563 133.78085938 -125.05078125 133.66796875 C-120.1877241 133.12319226 -115.80013486 131.90910364 -111.1875 130.3125 C-110.40487793 130.0441333 -109.62225586 129.7757666 -108.81591797 129.49926758 C-84.48954592 120.9427676 -66.02356643 104.20728272 -54.78637695 81.07519531 C-53.83903749 79.05802166 -52.91455044 77.03221916 -52 75 C-51.53980469 73.99710937 -51.07960938 72.99421875 -50.60546875 71.9609375 C-47.75983004 64.49993423 -47.62704191 57.23213844 -47.5625 49.3125 C-47.5521875 48.25490479 -47.541875 47.19730957 -47.53125 46.10766602 C-47.67739041 33.14074883 -51.63386357 22.17225669 -60.875 12.875 C-61.90664119 11.90588252 -62.94450203 10.94307807 -64 10 C-62.66732655 5.8443516 -61.10089737 3.85980998 -57.625 1.25 C-56.46871094 0.36054687 -56.46871094 0.36054687 -55.2890625 -0.546875 C-41.92449856 -9.03086439 -14.53425175 -1.66548518 0 0 Z M-7 48 C-7.03440186 48.55647217 -7.06880371 49.11294434 -7.10424805 49.6862793 C-8.86963659 76.45723335 -14.01488107 102.40442948 -33.9375 121.9375 C-34.618125 122.618125 -35.29875 123.29875 -36 124 C-36 124.66 -36 125.32 -36 126 C-36.58910156 126.2578125 -37.17820312 126.515625 -37.78515625 126.78125 C-40.18450133 128.10152454 -41.58811966 129.48998306 -43.4375 131.5 C-47.50525333 135.71413081 -51.96537826 139.15906383 -56.69506836 142.5859375 C-60.18525984 145.13282792 -60.18525984 145.13282792 -62 149 C-61.1646875 150.5778125 -61.1646875 150.5778125 -60.3125 152.1875 C-51.03883322 170.12089744 -51.5228902 193.22283142 -57.26171875 212.1796875 C-61.94752833 225.93778392 -69.67014991 237.96536002 -79 249 C-79.63164062 249.7940625 -80.26328125 250.588125 -80.9140625 251.40625 C-96.99625081 270.84174566 -126.55163314 286.83212193 -151.60644531 289.25170898 C-154.40422788 289.41577648 -157.19897379 289.53227637 -160 289.625 C-160.96550781 289.66367187 -161.93101562 289.70234375 -162.92578125 289.7421875 C-165.2836744 289.83556941 -167.64157756 289.92134329 -170 290 C-170.02578125 291.00675781 -170.0515625 292.01351562 -170.078125 293.05078125 C-171.1754336 323.5221969 -181.28986913 352.57972685 -201 376 C-201.6350647 376.77754639 -201.6350647 376.77754639 -202.28295898 377.57080078 C-213.05475552 390.7243725 -227.67055123 399.50729755 -243.08618164 406.17163086 C-244.89831971 406.95598913 -246.69581462 407.77392882 -248.4921875 408.59375 C-252.35964795 410.14417958 -256.12616481 411.1749054 -260.1875 412.0625 C-260.94981934 412.23168945 -261.71213867 412.40087891 -262.49755859 412.57519531 C-271.57604177 414.48239336 -280.76479927 415.2673536 -290 416 C-290.03440186 416.73935791 -290.06880371 417.47871582 -290.10424805 418.24047852 C-291.34939384 443.05652369 -295.9489882 464.12325844 -313 483 C-313.66386719 483.75667969 -314.32773437 484.51335937 -315.01171875 485.29296875 C-326.46037703 497.58810824 -343.76667098 507.00968449 -360 511 C-361.12921875 511.350625 -362.2584375 511.70125 -363.421875 512.0625 C-374.08697463 515.13012468 -384.54992303 515.35543545 -395.5625 515.3125 C-396.30628906 515.30995209 -397.05007813 515.30740417 -397.81640625 515.30477905 C-405.59558975 515.25901032 -413.28163777 515.06789489 -421 514 C-418.60327087 525.98364567 -415.20902556 537.80459958 -410.30078125 549.00390625 C-408.85902396 552.32471058 -407.55777813 555.68677519 -406.25 559.0625 C-388.65820042 603.4336266 -361.16505489 644.80792181 -328.45410156 679.44433594 C-326.97921125 681.02224075 -325.52946491 682.61994659 -324.0859375 684.2265625 C-319.56293173 689.25529869 -315.01930371 694.06814546 -309.828125 698.42578125 C-307.95536509 700.03843562 -306.22957423 701.73536683 -304.5 703.5 C-300.83001251 707.21085595 -296.99397501 710.64086978 -293 714 C-292.45730469 714.45648926 -291.91460937 714.91297852 -291.35546875 715.38330078 C-281.27622248 723.81954357 -270.85480151 731.59325495 -260 739 C-259.02716064 739.66708984 -259.02716064 739.66708984 -258.03466797 740.34765625 C-244.66340033 749.49156982 -230.87066488 757.60675913 -216.625 765.3125 C-215.51922607 765.9115918 -214.41345215 766.51068359 -213.27416992 767.12792969 C-207.27406744 770.34645874 -201.25926895 773.32602628 -195 776 C-193.19772247 776.80294968 -191.39565347 777.60636751 -189.59375 778.41015625 C-151.66244658 795.04906162 -112.07584098 805.70353372 -71 811 C-70.28466095 811.09249023 -69.5693219 811.18498047 -68.83230591 811.28027344 C-55.39626346 812.96262723 -42.06972096 813.31213032 -28.5378418 813.26074219 C-25.20147395 813.2500448 -21.86564832 813.26069492 -18.52929688 813.2734375 C0.0338451 813.28608543 18.46430524 812.1749613 36.8125 809.25 C37.87525146 809.08371094 38.93800293 808.91742187 40.03295898 808.74609375 C51.17618548 806.92719205 62.13267574 804.37422687 73.09716797 801.70068359 C75.76993494 801.05553295 78.44668865 800.43649704 81.12890625 799.83203125 C81.898396 799.65736328 82.66788574 799.48269531 83.46069336 799.30273438 C85.44494978 798.85328295 87.42949206 798.40509406 89.4140625 797.95703125 C92.66193434 797.09022449 95.68612637 796.04149094 98.81201172 794.82788086 C101.2262034 793.91441021 103.66056319 793.08948199 106.109375 792.2734375 C124.08634963 786.2466038 141.11538543 778.72347448 157.95751953 770.04345703 C160.08607499 768.95602624 162.22768479 767.89766056 164.37109375 766.83984375 C190.65879498 753.66933218 215.27170204 735.76961039 237 716 C237.64533691 715.41637695 238.29067383 714.83275391 238.95556641 714.23144531 C274.02953303 682.38335949 301.04154477 644.69865194 322.375 602.5 C322.68477783 601.88987061 322.99455566 601.27974121 323.3137207 600.65112305 C327.91612105 591.37994761 331.3344673 581.56401289 334.9375 571.875 C335.35451172 570.76640625 335.77152344 569.6578125 336.20117188 568.515625 C341.44128039 554.4232157 345.59440382 540.40150649 348.68530273 525.69897461 C349.1897239 523.30193187 349.70628044 520.90774176 350.22460938 518.51367188 C355.43532088 494.26150229 357.35752987 470.18120802 357.26074219 445.38867188 C357.24993511 442.1052841 357.26076791 438.82243489 357.2734375 435.5390625 C357.28577004 417.00142395 355.30025135 399.22006032 352 381 C351.84772949 380.15501953 351.69545898 379.31003906 351.53857422 378.43945312 C348.36384241 360.96066518 344.63007228 343.86134468 339 327 C338.78649902 326.35160156 338.57299805 325.70320313 338.35302734 325.03515625 C328.23404895 294.50440741 314.28913667 265.11429856 297 238 C296.62681641 237.41379883 296.25363281 236.82759766 295.86914062 236.22363281 C293.64972003 232.76541742 291.34887052 229.37132004 289 226 C288.61102539 225.44119141 288.22205078 224.88238281 287.82128906 224.30664062 C282.47306563 216.64962128 276.92854146 209.2214061 271 202 C270.29230469 201.11828125 269.58460938 200.2365625 268.85546875 199.328125 C264.19426939 193.54856432 259.34694488 187.99578673 254.31640625 182.53515625 C252.43270677 180.47356947 250.61363292 178.38279934 248.8125 176.25 C240.64631001 166.85888152 231.56092942 157.96145063 222 150 C220.44323901 148.67110687 218.88648493 147.34220563 217.32983398 146.01318359 C185.60436655 119.01723235 150.78325019 97.46202177 113 80 C111.60056152 79.33919434 111.60056152 79.33919434 110.17285156 78.66503906 C103.69906593 75.6439391 97.13979051 73.16309091 90.375 70.875 C89.40304687 70.54113281 88.43109375 70.20726562 87.4296875 69.86328125 C81.63084864 67.87577599 75.81928192 65.92674835 70 64 C68.83339844 63.61199219 67.66679688 63.22398438 66.46484375 62.82421875 C42.80283882 55.19892148 17.94481135 48.86463818 -7 48 Z " fill="#FFF7DA" transform="translate(530,60)"/>
<path d="M0 0 C1.12148438 0.47566406 2.24296875 0.95132812 3.3984375 1.44140625 C16.57498897 7.34539248 25.74902932 16.76245523 31.3203125 30.1796875 C35.72628897 43.520861 35.422607 57.71160874 31 71 C30.79503906 71.68835938 30.59007812 72.37671875 30.37890625 73.0859375 C23.98126631 92.55701557 8.84376106 107.28854807 -9 116.4375 C-23.62540668 123.53928501 -39.66119194 125.49248656 -55.39453125 120.90625 C-70.73190485 115.57151136 -80.45073179 104.79715338 -87.51953125 90.5625 C-90.26236177 83.9623379 -91.36855499 77.88052391 -91.3125 70.75 C-91.30831055 70.01056152 -91.30412109 69.27112305 -91.29980469 68.50927734 C-91.16757948 62.02320902 -90.02471554 56.17014606 -88 50 C-87.7215625 49.07832031 -87.443125 48.15664063 -87.15625 47.20703125 C-81.23159796 29.10109033 -66.77129379 13.82749408 -50.33203125 4.60546875 C-35.1337647 -2.71749438 -16.06555945 -6.98826967 0 0 Z " fill="#FFF7DB" transform="translate(637,464)"/>
<path d="M0 0 C12.72383665 10.95000419 20.5462656 24.95753382 22.4140625 41.71484375 C22.84891618 59.60314288 15.8713637 76.63818501 3.75 89.6875 C-9.466641 102.22409012 -25.94038246 106.78060552 -43.74609375 106.3125 C-59.33848374 105.47401163 -72.47142463 96.98848194 -83 86 C-93.92066234 73.82167981 -98.07637896 56.20494911 -97.2265625 40.20361328 C-95.70801764 25.43380093 -87.82611102 11.89770906 -77 2 C-53.93472977 -15.67922541 -23.72966527 -18.44094222 0 0 Z " fill="#FFF7DB" transform="translate(689,274)"/>
<path d="M0 0 C0.64839844 0.45246094 1.29679688 0.90492188 1.96484375 1.37109375 C8.83932965 6.68114522 14.12605395 15.25982913 15.2512207 23.9375 C16.17696756 36.44018512 14.56473509 46.58035321 6.84375 56.875 C4.6633266 59.38398035 2.40414999 61.70628799 0 64 C-0.84691406 64.85851562 -0.84691406 64.85851562 -1.7109375 65.734375 C-13.42421155 76.81913191 -30.02353605 80.64796161 -45.66577148 80.47045898 C-59.67459355 79.96808658 -71.7363757 74.88098565 -81.4375 64.625 C-89.5952264 54.82904166 -90.76200721 44.42764485 -90 32 C-89.38305213 28.76952493 -88.3794256 25.97843322 -87 23 C-86.54173828 21.93072266 -86.54173828 21.93072266 -86.07421875 20.83984375 C-80.3736006 9.08620561 -68.80378138 -0.46768526 -56.81640625 -5.27734375 C-38.09941645 -11.71488859 -16.56073462 -11.72211998 0 0 Z " fill="#FFF7DB" transform="translate(676,685)"/>
<path d="M0 0 C9.08218722 7.00367671 16.71951199 16.25427479 19.203125 27.703125 C21.01869101 43.09596729 18.25744557 56.438958 8.5625 68.75 C-0.40779772 78.68632979 -13.2821462 84.84506748 -26.59375 86.03125 C-40.47204422 86.42777269 -52.98179052 82.61473953 -63.625 73.625 C-68.6237666 68.90089091 -72.12370241 63.74472136 -75.4375 57.75 C-76.08912109 56.70972656 -76.08912109 56.70972656 -76.75390625 55.6484375 C-81.07767938 47.84455428 -80.47970924 37.65011017 -78.96484375 29.07421875 C-78.28560729 26.8494143 -77.43663835 24.8504613 -76.4375 22.75 C-76.0353125 21.79738281 -75.633125 20.84476563 -75.21875 19.86328125 C-69.39672198 6.9739581 -60.04869455 -0.42622577 -47.4375 -6.25 C-31.77874932 -11.61208861 -13.72752411 -8.95001192 0 0 Z " fill="#FFF7DA" transform="translate(312.4375,592.25)"/>
<path d="M0 0 C9.6089943 7.67021342 16.89743765 19.83284483 18.65234375 32.1171875 C19.67898199 46.47111098 16.66633573 59.09713608 7.75390625 70.55859375 C0.09773591 78.96899648 -10.6039509 84.68881231 -22.01953125 85.3203125 C-29.59619755 85.46555507 -36.36564396 85.35694699 -43.34765625 82.1171875 C-44.13140625 81.81167969 -44.91515625 81.50617188 -45.72265625 81.19140625 C-57.59419518 76.09035437 -64.67896744 66.78570067 -70.0078125 55.4765625 C-75.20209614 42.4529942 -75.2916634 28.11675775 -69.88671875 15.1328125 C-64.17335196 3.93809382 -54.38047578 -4.93140423 -42.34765625 -8.8828125 C-27.16361181 -12.65968406 -12.52229365 -8.98445773 0 0 Z " fill="#FFF7DB" transform="translate(488.34765625,726.8828125)"/>
<path d="M0 0 C8.88115582 5.45679893 15.54164337 13.26890578 18.53515625 23.34765625 C21.4314441 39.87353396 16.3443317 54.19311868 7.15234375 67.71875 C-0.31140905 76.71962386 -10.90288294 83.49462794 -22 87 C-23.19625 87.4125 -24.3925 87.825 -25.625 88.25 C-37.13826962 90.81888369 -49.05670802 89.68557188 -59.23828125 83.6796875 C-67.82389211 77.76192182 -74.06701174 68.30319215 -76 58 C-76.66236097 48.2600362 -76.42113247 39.908252 -72 31 C-71.53722656 30.03707031 -71.07445312 29.07414062 -70.59765625 28.08203125 C-62.39817034 12.58520335 -49.28056378 2.4548797 -32.77734375 -3.08203125 C-21.79332893 -5.75136267 -10.29231722 -4.80127807 0 0 Z " fill="#FFF7DA" transform="translate(491,437)"/>
<path d="M0 0 C1.1919397 0.00737183 1.1919397 0.00737183 2.40795898 0.01489258 C8.41173663 0.13453863 13.66070561 0.83497148 19.1875 3.3125 C19.92871094 3.64121094 20.66992188 3.96992188 21.43359375 4.30859375 C30.15297868 8.67584201 38.38608641 15.75028337 43.1875 24.3125 C43.57808594 24.96863281 43.96867188 25.62476563 44.37109375 26.30078125 C48.85101853 35.27613228 48.46190635 46.69571472 46.59765625 56.375 C42.82127949 67.23425853 34.32699872 75.3856789 24.1875 80.3125 C23.52363281 80.63863281 22.85976563 80.96476563 22.17578125 81.30078125 C11.29093122 86.28278419 -2.28542642 85.41088704 -13.37109375 81.3828125 C-25.48975105 75.90011263 -35.05419684 65.63647537 -40.06640625 53.38671875 C-41.05988891 50.62473292 -41.58196583 48.25181063 -41.8125 45.3125 C-41.88726563 44.46171875 -41.96203125 43.6109375 -42.0390625 42.734375 C-42.60937689 31.26805405 -38.72091185 21.29099899 -31.25390625 12.60546875 C-22.33038074 4.22449359 -12.20810038 -0.08924239 0 0 Z " fill="#FFF7DA" transform="translate(810.8125,480.6875)"/>
<path d="M0 0 C0.66 0.33 1.32 0.66 2 1 C-1.63 4.63 -5.26 8.26 -9 12 C-9.33 11.34 -9.66 10.68 -10 10 C-6.92118304 6.12948725 -3.99926986 2.97088618 0 0 Z " fill="#FFEFC5" transform="translate(67,521)"/>
</svg>
