<?xml version="1.0" encoding="UTF-8" standalone="no"?><!DOCTYPE svg PUBLIC "-//W3C//DTD SVG 1.1//EN" "http://www.w3.org/Graphics/SVG/1.1/DTD/svg11.dtd"><svg width="100%" height="100%" viewBox="0 0 4961 4961" version="1.1" xmlns="http://www.w3.org/2000/svg" xmlns:xlink="http://www.w3.org/1999/xlink" xml:space="preserve" xmlns:serif="http://www.serif.com/" style="fill-rule:evenodd;clip-rule:evenodd;stroke-linecap:round;stroke-linejoin:round;stroke-miterlimit:1.5;"><rect x="0" y="0" width="4960.63" height="4960.63" style="fill:#ffc350;"/><path d="M2948.958,650.011c816.18,208.663 1420.351,949.485 1420.351,1830.304c0,1042.564 -846.43,1888.993 -1888.993,1888.993c-875.393,0 -1612.508,-596.749 -1826.387,-1405.291c62.927,33.14 134.584,51.901 210.588,51.901c249.977,0 452.927,-202.95 452.927,-452.927c0,-83.137 -22.448,-161.072 -61.608,-228.07c22.436,3.425 45.411,5.201 68.797,5.201c249.977,0 452.927,-202.95 452.927,-452.927c0,-36.179 -4.251,-71.373 -12.281,-105.11c52.623,21.415 110.167,33.216 170.446,33.216c249.977,0 452.927,-202.95 452.927,-452.927c0,-1.497 -0.007,-2.991 -0.022,-4.485c71.993,48.235 158.56,76.378 251.648,76.378c249.977,0 452.927,-202.95 452.927,-452.927c0,-130.745 -55.518,-248.625 -144.246,-331.331Z" style="fill:#fff8dc;fill-opacity:0;stroke:#fff8dc;stroke-width:145.83px;"/><circle cx="3456.907" cy="1817.689" r="223.016" style="fill:#fff8dc;stroke:#fff8dc;stroke-width:112.5px;"/><circle cx="1780.692" cy="3284.04" r="223.016" style="fill:#fff8dc;stroke:#fff8dc;stroke-width:112.5px;"/><circle cx="2480.315" cy="2133.778" r="179.401" style="fill:#fff8dc;stroke:#fff8dc;stroke-width:112.5px;"/><ellipse cx="2533.145" cy="3932.742" rx="126.571" ry="151.075" style="fill:#fff8dc;stroke:#fff8dc;stroke-width:112.5px;"/><circle cx="3593.594" cy="2984.925" r="215.822" style="fill:#fff8dc;stroke:#fff8dc;stroke-width:112.5px;"/><circle cx="2679.106" cy="2915.064" r="145.961" style="fill:#fff8dc;stroke:#fff8dc;stroke-width:112.5px;"/><path d="M1309.082,1065.341l-302.965,-81.715l238.775,-225.441l64.19,307.156Z" style="fill:#fff8dc;stroke:#fff8dc;stroke-width:112.5px;"/><path d="M1136.771,1632.878l-482.843,275.749l27.363,-594.675l455.48,318.925Z" style="fill:#fff8dc;stroke:#fff8dc;stroke-width:112.5px;"/><path d="M1797.633,931.994l-209.385,-411.78l411.911,-3.417l-202.526,415.197Z" style="fill:#fff8dc;stroke:#fff8dc;stroke-width:112.5px;"/></svg>